<svg xmlns="http://www.w3.org/2000/svg" xmlns:xlink="http://www.w3.org/1999/xlink" width="150" zoomAndPan="magnify" viewBox="0 0 112.5 112.499997" height="150" preserveAspectRatio="xMidYMid meet" version="1.2"><defs><clipPath id="ab4dc1cd80"><path d="M 18.503906 16.46875 L 97.652344 16.46875 L 97.652344 95.617188 L 18.503906 95.617188 Z M 18.503906 16.46875 "/></clipPath></defs><g id="09c96017a1"><g clip-rule="nonzero" clip-path="url(#ab4dc1cd80)"><path style=" stroke:none;fill-rule:nonzero;fill:#fbd520;fill-opacity:1;" d="M 58.023438 16.464844 C 36.230469 16.464844 18.5 34.199219 18.5 55.992188 C 18.5 77.785156 36.234375 95.515625 58.023438 95.515625 C 79.816406 95.515625 97.550781 77.785156 97.550781 55.992188 C 97.550781 34.199219 79.820312 16.464844 58.023438 16.464844 Z M 58.023438 22.789062 C 66.042969 22.789062 73.402344 25.648438 79.148438 30.398438 L 32.429688 77.113281 C 27.683594 71.371094 24.824219 64.007812 24.824219 55.992188 C 24.824219 37.683594 39.71875 22.789062 58.023438 22.789062 Z M 58.023438 89.191406 C 50.007812 89.191406 42.648438 86.335938 36.902344 81.585938 L 83.621094 34.867188 C 88.367188 40.609375 91.226562 47.972656 91.226562 55.992188 C 91.226562 74.296875 76.332031 89.191406 58.023438 89.191406 Z M 58.023438 89.191406 "/></g><path style=" stroke:none;fill-rule:nonzero;fill:#fbd520;fill-opacity:1;" d="M 84.902344 52.828125 C 83.734375 52.828125 82.726562 53.46875 82.179688 54.410156 L 78.484375 54.410156 C 78.265625 51.632812 77.523438 49.007812 76.316406 46.644531 L 48.679688 74.28125 C 51.039062 75.488281 53.667969 76.234375 56.445312 76.449219 L 56.445312 80.144531 C 55.503906 80.691406 54.863281 81.699219 54.863281 82.867188 C 54.863281 84.613281 56.277344 86.03125 58.023438 86.03125 C 59.769531 86.03125 61.1875 84.613281 61.1875 82.867188 C 61.1875 81.699219 60.546875 80.691406 59.605469 80.144531 L 59.605469 76.464844 C 64.085938 76.121094 68.160156 74.332031 71.378906 71.582031 L 73.953125 74.15625 C 73.882812 74.414062 73.835938 74.683594 73.835938 74.964844 C 73.835938 76.710938 75.25 78.125 76.996094 78.125 C 78.742188 78.125 80.160156 76.710938 80.160156 74.964844 C 80.160156 73.21875 78.742188 71.800781 76.996094 71.800781 C 76.714844 71.800781 76.449219 71.851562 76.1875 71.917969 L 73.613281 69.34375 C 76.375 66.128906 78.160156 62.054688 78.507812 57.574219 L 82.179688 57.574219 C 82.726562 58.511719 83.734375 59.152344 84.902344 59.152344 C 86.648438 59.152344 88.0625 57.738281 88.0625 55.992188 C 88.0625 54.246094 86.648438 52.832031 84.902344 52.832031 Z M 84.902344 52.828125 "/><path style=" stroke:none;fill-rule:nonzero;fill:#fbd520;fill-opacity:1;" d="M 33.871094 57.574219 L 37.566406 57.574219 C 37.78125 60.347656 38.527344 62.976562 39.734375 65.339844 L 67.371094 37.703125 C 65.011719 36.492188 62.382812 35.75 59.605469 35.535156 L 59.605469 31.839844 C 60.546875 31.289062 61.1875 30.28125 61.1875 29.117188 C 61.1875 27.371094 59.769531 25.953125 58.023438 25.953125 C 56.277344 25.953125 54.863281 27.371094 54.863281 29.117188 C 54.863281 30.28125 55.503906 31.289062 56.445312 31.839844 L 56.445312 35.519531 C 51.960938 35.859375 47.886719 37.644531 44.671875 40.398438 L 42.097656 37.828125 C 42.167969 37.570312 42.214844 37.300781 42.214844 37.019531 C 42.214844 35.273438 40.800781 33.859375 39.054688 33.859375 C 37.308594 33.859375 35.890625 35.273438 35.890625 37.019531 C 35.890625 38.765625 37.308594 40.179688 39.054688 40.179688 C 39.335938 40.179688 39.601562 40.132812 39.863281 40.066406 L 42.433594 42.636719 C 39.675781 45.851562 37.890625 49.925781 37.550781 54.410156 L 33.875 54.410156 C 33.324219 53.46875 32.316406 52.828125 31.148438 52.828125 C 29.402344 52.828125 27.988281 54.246094 27.988281 55.992188 C 27.988281 57.738281 29.402344 59.152344 31.148438 59.152344 C 32.316406 59.152344 33.324219 58.511719 33.875 57.570312 Z M 33.871094 57.574219 "/></g></svg>