<svg xmlns="http://www.w3.org/2000/svg" xmlns:xlink="http://www.w3.org/1999/xlink" width="150" zoomAndPan="magnify" viewBox="0 0 112.5 112.499997" height="150" preserveAspectRatio="xMidYMid meet" version="1.2"><defs><clipPath id="80e3824c3c"><path d="M 8.765625 31.367188 L 77 31.367188 L 77 80.648438 L 8.765625 80.648438 Z M 8.765625 31.367188 "/></clipPath><clipPath id="1a26af246b"><path d="M 39 31.367188 L 107.328125 31.367188 L 107.328125 80.648438 L 39 80.648438 Z M 39 31.367188 "/></clipPath></defs><g id="5595bda71a"><g clip-rule="nonzero" clip-path="url(#80e3824c3c)"><path style=" stroke:none;fill-rule:evenodd;fill:#fbd520;fill-opacity:1;" d="M 51.875 43.679688 L 33.402344 43.679688 C 26.601562 43.679688 21.085938 49.195312 21.085938 55.996094 C 21.085938 62.796875 26.601562 68.308594 33.402344 68.308594 L 33.402344 80.625 C 19.800781 80.625 8.773438 69.597656 8.773438 55.996094 C 8.773438 42.394531 19.800781 31.367188 33.402344 31.367188 L 51.875 31.367188 C 65.476562 31.367188 76.503906 42.394531 76.503906 55.996094 L 76.503906 62.152344 L 64.1875 62.152344 L 64.1875 55.996094 C 64.1875 49.195312 58.675781 43.679688 51.875 43.679688 Z M 51.875 43.679688 "/></g><g clip-rule="nonzero" clip-path="url(#1a26af246b)"><path style=" stroke:none;fill-rule:evenodd;fill:#fbd520;fill-opacity:1;" d="M 64.1875 68.308594 L 82.660156 68.308594 C 89.460938 68.308594 94.972656 62.796875 94.972656 55.996094 C 94.972656 49.195312 89.460938 43.679688 82.660156 43.679688 L 82.660156 31.367188 C 96.261719 31.367188 107.289062 42.394531 107.289062 55.996094 C 107.289062 69.597656 96.261719 80.625 82.660156 80.625 L 64.1875 80.625 C 50.585938 80.625 39.558594 69.597656 39.558594 55.996094 L 39.558594 49.839844 L 51.875 49.839844 L 51.875 55.996094 C 51.875 62.796875 57.386719 68.308594 64.1875 68.308594 Z M 64.1875 68.308594 "/></g></g></svg>