<svg xmlns="http://www.w3.org/2000/svg" xmlns:xlink="http://www.w3.org/1999/xlink" width="150" zoomAndPan="magnify" viewBox="0 0 112.5 112.499997" height="150" preserveAspectRatio="xMidYMid meet" version="1.2"><defs><clipPath id="023f94a5db"><path d="M 0 0 L 112.003906 0 L 112.003906 112.003906 L 0 112.003906 Z M 0 0 "/></clipPath><clipPath id="2441f8b282"><path d="M 22.609375 13.574219 L 77 13.574219 L 77 97 L 22.609375 97 Z M 22.609375 13.574219 "/></clipPath><clipPath id="6320448393"><path d="M 60 57 L 93.546875 57 L 93.546875 98.699219 L 60 98.699219 Z M 60 57 "/></clipPath></defs><g id="ec32b1d291"><g clip-rule="nonzero" clip-path="url(#023f94a5db)"><path style=" stroke:none;fill-rule:nonzero;fill:#ffffff;fill-opacity:1;" d="M 0 0 L 112.003906 0 L 112.003906 112.003906 L 0 112.003906 Z M 0 0 "/><path style=" stroke:none;fill-rule:nonzero;fill:#ffffff;fill-opacity:1;" d="M 0 0 L 112.003906 0 L 112.003906 112.003906 L 0 112.003906 Z M 0 0 "/></g><g clip-rule="nonzero" clip-path="url(#2441f8b282)"><path style=" stroke:none;fill-rule:nonzero;fill:#fbd520;fill-opacity:1;" d="M 64.488281 92.683594 C 64.476562 92.667969 64.460938 92.648438 64.445312 92.632812 C 64.351562 92.53125 64.261719 92.425781 64.171875 92.320312 C 64.15625 92.300781 64.140625 92.28125 64.125 92.265625 C 64.035156 92.15625 63.945312 92.050781 63.855469 91.945312 C 63.84375 91.929688 63.832031 91.917969 63.824219 91.902344 C 63.734375 91.792969 63.644531 91.683594 63.558594 91.570312 C 63.554688 91.566406 63.550781 91.5625 63.546875 91.558594 C 63.457031 91.445312 63.371094 91.332031 63.285156 91.21875 C 63.273438 91.199219 63.261719 91.183594 63.246094 91.164062 C 63.164062 91.054688 63.085938 90.945312 63.003906 90.835938 C 62.988281 90.8125 62.976562 90.792969 62.960938 90.773438 C 62.882812 90.660156 62.800781 90.546875 62.726562 90.433594 C 62.714844 90.417969 62.703125 90.402344 62.691406 90.386719 C 62.613281 90.269531 62.535156 90.15625 62.457031 90.035156 C 62.457031 90.03125 62.453125 90.027344 62.449219 90.023438 C 62.375 89.90625 62.296875 89.785156 62.222656 89.667969 C 62.210938 89.648438 62.199219 89.628906 62.1875 89.609375 C 62.117188 89.496094 62.046875 89.378906 61.976562 89.261719 C 61.964844 89.238281 61.949219 89.21875 61.9375 89.195312 C 61.867188 89.078125 61.800781 88.960938 61.734375 88.839844 C 61.722656 88.824219 61.714844 88.804688 61.703125 88.789062 C 61.636719 88.664062 61.566406 88.542969 61.5 88.417969 C 61.5 88.414062 61.5 88.410156 61.496094 88.410156 C 61.429688 88.285156 61.367188 88.15625 61.300781 88.03125 C 61.292969 88.011719 61.28125 87.992188 61.273438 87.972656 C 61.210938 87.851562 61.152344 87.730469 61.09375 87.605469 C 61.082031 87.582031 61.070312 87.558594 61.058594 87.535156 C 61 87.414062 60.941406 87.289062 60.886719 87.164062 C 60.878906 87.148438 60.871094 87.128906 60.859375 87.109375 C 60.800781 86.976562 60.746094 86.847656 60.6875 86.714844 C 60.433594 86.117188 60.207031 85.507812 60.007812 84.890625 C 59.953125 84.714844 59.898438 84.535156 59.847656 84.359375 C 59.765625 84.089844 59.695312 83.820312 59.625 83.550781 C 59.578125 83.367188 59.535156 83.1875 59.496094 83.003906 C 59.371094 82.457031 59.269531 81.90625 59.1875 81.34375 C 59.160156 81.160156 59.136719 80.972656 59.113281 80.78125 C 59.066406 80.40625 59.03125 80.027344 59.003906 79.648438 C 58.960938 79.074219 58.941406 78.496094 58.941406 77.914062 L 58.941406 62.1875 C 58.941406 62.097656 58.953125 62.007812 58.980469 61.925781 C 59.023438 61.800781 59.09375 61.691406 59.183594 61.597656 C 59.246094 61.535156 59.316406 61.484375 59.394531 61.445312 C 59.433594 61.425781 59.476562 61.410156 59.519531 61.394531 L 76.355469 56.03125 C 73.488281 47.84375 68.472656 37.589844 62.796875 28.332031 C 60.113281 23.953125 57.535156 20.234375 55.351562 17.578125 C 52.152344 13.6875 50.996094 13.578125 50.875 13.578125 C 50.714844 13.578125 49.195312 13.746094 44.734375 19.691406 C 41.742188 23.683594 38.300781 29.113281 35.050781 34.988281 C 31.53125 41.34375 28.523438 47.667969 26.355469 53.28125 C 23.910156 59.609375 22.621094 64.855469 22.621094 68.457031 C 22.621094 72.269531 23.367188 75.964844 24.835938 79.445312 C 26.257812 82.804688 28.292969 85.824219 30.886719 88.417969 C 33.480469 91.007812 36.496094 93.042969 39.859375 94.464844 C 43.335938 95.9375 47.035156 96.683594 50.84375 96.683594 C 55.753906 96.683594 60.550781 95.414062 64.785156 93.007812 C 64.78125 93.003906 64.78125 93.003906 64.78125 93 C 64.683594 92.898438 64.585938 92.789062 64.488281 92.683594 Z M 36.742188 87.1875 C 36.578125 87.390625 36.339844 87.496094 36.097656 87.496094 C 35.914062 87.496094 35.726562 87.4375 35.574219 87.3125 C 34.871094 86.742188 34.1875 86.125 33.539062 85.476562 C 31.144531 83.082031 29.261719 80.289062 27.949219 77.183594 C 26.589844 73.972656 25.898438 70.554688 25.898438 67.03125 C 25.898438 66.574219 26.273438 66.199219 26.730469 66.199219 C 27.191406 66.199219 27.5625 66.574219 27.5625 67.03125 C 27.5625 70.332031 28.207031 73.527344 29.480469 76.535156 C 30.710938 79.445312 32.472656 82.058594 34.714844 84.300781 C 35.320312 84.90625 35.964844 85.484375 36.621094 86.019531 C 36.976562 86.308594 37.03125 86.832031 36.742188 87.1875 Z M 42.921875 90.625 C 42.789062 90.945312 42.480469 91.136719 42.15625 91.136719 C 42.046875 91.136719 41.9375 91.113281 41.832031 91.070312 C 40.8125 90.636719 39.8125 90.136719 38.863281 89.582031 C 38.464844 89.351562 38.332031 88.84375 38.5625 88.445312 C 38.792969 88.050781 39.300781 87.914062 39.699219 88.144531 C 40.589844 88.664062 41.523438 89.132812 42.480469 89.535156 C 42.902344 89.714844 43.101562 90.203125 42.921875 90.625 Z M 42.921875 90.625 "/></g><g clip-rule="nonzero" clip-path="url(#6320448393)"><path style=" stroke:none;fill-rule:nonzero;fill:#fbd520;fill-opacity:1;" d="M 77.261719 57.640625 C 77.261719 57.640625 77.261719 57.640625 77.257812 57.640625 L 77.023438 57.5625 L 60.605469 62.796875 L 60.605469 77.914062 C 60.605469 78.09375 60.605469 78.273438 60.609375 78.453125 C 60.675781 81.140625 61.214844 83.699219 62.21875 86.0625 C 63.253906 88.496094 64.761719 90.691406 66.699219 92.585938 C 69.433594 95.257812 73 97.273438 77.023438 98.417969 C 81.859375 97.042969 85.9375 94.472656 88.832031 90.980469 C 91.847656 87.335938 93.445312 82.820312 93.445312 77.914062 L 93.445312 62.796875 Z M 86.25 74.066406 L 77.144531 82.71875 C 76.792969 83.058594 76.324219 83.242188 75.835938 83.242188 C 75.808594 83.242188 75.78125 83.242188 75.753906 83.242188 C 75.238281 83.21875 74.753906 82.988281 74.410156 82.601562 L 70.585938 78.273438 C 69.890625 77.484375 69.964844 76.28125 70.75 75.585938 C 71.539062 74.890625 72.738281 74.964844 73.433594 75.753906 L 75.953125 78.605469 L 83.628906 71.308594 C 84.390625 70.585938 85.59375 70.617188 86.316406 71.375 C 87.039062 72.136719 87.011719 73.339844 86.25 74.066406 Z M 86.25 74.066406 "/></g></g></svg>