<svg xmlns="http://www.w3.org/2000/svg" xmlns:xlink="http://www.w3.org/1999/xlink" width="150" zoomAndPan="magnify" viewBox="0 0 112.5 112.499997" height="150" preserveAspectRatio="xMidYMid meet" version="1.2"><defs><clipPath id="d01c0db9b8"><path d="M 16.910156 14.875 L 99.046875 14.875 L 99.046875 97.011719 L 16.910156 97.011719 Z M 16.910156 14.875 "/></clipPath></defs><g id="0b386a1bf4"><g clip-rule="nonzero" clip-path="url(#d01c0db9b8)"><path style=" stroke:none;fill-rule:nonzero;fill:#fbd520;fill-opacity:1;" d="M 57.980469 14.878906 L 50.800781 19.808594 L 42.257812 18.003906 L 37.484375 25.304688 L 28.941406 26.910156 L 27.339844 35.449219 L 20.039062 40.222656 L 21.804688 48.765625 L 16.910156 55.945312 L 21.804688 63.164062 L 20.039062 71.664062 L 27.339844 76.4375 L 28.941406 84.980469 L 37.484375 86.625 L 42.257812 93.882812 L 50.800781 92.121094 L 57.980469 97.011719 L 65.15625 92.121094 L 73.699219 93.882812 L 78.472656 86.625 L 87.015625 84.980469 L 88.617188 76.4375 L 95.917969 71.664062 L 94.152344 63.164062 L 99.046875 55.945312 L 94.152344 48.765625 L 95.917969 40.222656 L 88.617188 35.449219 L 87.015625 26.910156 L 78.472656 25.304688 L 73.699219 18.003906 L 65.15625 19.808594 Z M 57.980469 27.710938 C 73.570312 27.710938 86.210938 40.351562 86.210938 55.945312 C 86.210938 71.539062 73.570312 84.179688 57.980469 84.179688 C 42.386719 84.179688 29.746094 71.539062 29.746094 55.945312 C 29.746094 40.351562 42.386719 27.710938 57.980469 27.710938 Z M 70.453125 43.03125 L 53.769531 60.835938 L 45.023438 53.058594 L 39.890625 58.792969 L 51.441406 69.058594 L 54.25 71.546875 L 56.816406 68.816406 L 76.066406 48.285156 Z M 70.453125 43.03125 "/></g></g></svg>