<svg xmlns="http://www.w3.org/2000/svg" xmlns:xlink="http://www.w3.org/1999/xlink" width="150" zoomAndPan="magnify" viewBox="0 0 112.5 112.499997" height="150" preserveAspectRatio="xMidYMid meet" version="1.2"><defs><clipPath id="55d24434b9"><path d="M 34.957031 22.597656 L 81 22.597656 L 81 89 L 34.957031 89 Z M 34.957031 22.597656 "/></clipPath></defs><g id="6a9f8ec88f"><path style=" stroke:none;fill-rule:nonzero;fill:#fbd520;fill-opacity:1;" d="M 58.90625 59.5 C 58.90625 59.632812 58.882812 59.757812 58.832031 59.878906 C 58.78125 60 58.710938 60.109375 58.617188 60.199219 C 58.523438 60.292969 58.417969 60.363281 58.296875 60.414062 C 58.175781 60.464844 58.050781 60.488281 57.917969 60.488281 C 57.789062 60.488281 57.660156 60.464844 57.539062 60.414062 C 57.417969 60.363281 57.3125 60.292969 57.21875 60.199219 C 57.128906 60.109375 57.054688 60 57.003906 59.878906 C 56.957031 59.757812 56.929688 59.632812 56.929688 59.5 C 56.929688 59.371094 56.957031 59.246094 57.003906 59.125 C 57.054688 59.003906 57.128906 58.894531 57.21875 58.804688 C 57.3125 58.710938 57.417969 58.640625 57.539062 58.589844 C 57.660156 58.539062 57.789062 58.515625 57.917969 58.515625 C 58.050781 58.515625 58.175781 58.539062 58.296875 58.589844 C 58.417969 58.640625 58.523438 58.710938 58.617188 58.804688 C 58.710938 58.894531 58.78125 59.003906 58.832031 59.125 C 58.882812 59.246094 58.90625 59.371094 58.90625 59.5 Z M 58.90625 59.5 "/><path style=" stroke:none;fill-rule:nonzero;fill:#fbd520;fill-opacity:1;" d="M 58.90625 63.40625 C 58.90625 63.539062 58.882812 63.664062 58.832031 63.785156 C 58.78125 63.90625 58.710938 64.011719 58.617188 64.105469 C 58.523438 64.199219 58.417969 64.269531 58.296875 64.320312 C 58.175781 64.367188 58.050781 64.394531 57.917969 64.394531 C 57.789062 64.394531 57.660156 64.367188 57.539062 64.320312 C 57.417969 64.269531 57.3125 64.199219 57.21875 64.105469 C 57.128906 64.011719 57.054688 63.90625 57.003906 63.785156 C 56.957031 63.664062 56.929688 63.539062 56.929688 63.40625 C 56.929688 63.273438 56.957031 63.148438 57.003906 63.027344 C 57.054688 62.90625 57.128906 62.800781 57.21875 62.707031 C 57.3125 62.613281 57.417969 62.542969 57.539062 62.492188 C 57.660156 62.441406 57.789062 62.417969 57.917969 62.417969 C 58.050781 62.417969 58.175781 62.441406 58.296875 62.492188 C 58.417969 62.542969 58.523438 62.613281 58.617188 62.707031 C 58.710938 62.800781 58.78125 62.90625 58.832031 63.027344 C 58.882812 63.148438 58.90625 63.273438 58.90625 63.40625 Z M 58.90625 63.40625 "/><g clip-rule="nonzero" clip-path="url(#55d24434b9)"><path style=" stroke:none;fill-rule:nonzero;fill:#fbd520;fill-opacity:1;" d="M 64.851562 53.503906 L 69.117188 49.605469 L 71.164062 47.75 C 74.863281 44.414062 76.699219 39.894531 76.769531 33.910156 L 76.769531 28.882812 L 79.867188 28.882812 C 80 28.886719 80.128906 28.863281 80.253906 28.816406 C 80.375 28.765625 80.484375 28.695312 80.582031 28.601562 C 80.675781 28.507812 80.75 28.402344 80.800781 28.277344 C 80.851562 28.15625 80.878906 28.027344 80.878906 27.894531 L 80.878906 23.617188 C 80.878906 23.488281 80.851562 23.363281 80.804688 23.242188 C 80.753906 23.121094 80.683594 23.011719 80.589844 22.921875 C 80.496094 22.828125 80.390625 22.757812 80.269531 22.707031 C 80.148438 22.65625 80.023438 22.632812 79.890625 22.632812 L 35.960938 22.632812 C 35.832031 22.632812 35.703125 22.65625 35.582031 22.707031 C 35.460938 22.757812 35.355469 22.828125 35.261719 22.921875 C 35.171875 23.011719 35.097656 23.121094 35.050781 23.242188 C 35 23.363281 34.972656 23.488281 34.972656 23.617188 L 34.972656 27.894531 C 34.972656 28.027344 35 28.152344 35.050781 28.273438 C 35.097656 28.394531 35.171875 28.5 35.261719 28.59375 C 35.355469 28.6875 35.460938 28.757812 35.582031 28.808594 C 35.703125 28.859375 35.832031 28.882812 35.960938 28.882812 L 39.058594 28.882812 L 39.058594 33.894531 C 39.132812 39.859375 40.972656 44.382812 44.671875 47.710938 L 47.042969 49.875 L 50.996094 53.480469 C 51.410156 53.792969 51.742188 54.175781 51.992188 54.632812 C 52.242188 55.089844 52.386719 55.578125 52.425781 56.09375 C 52.375 56.628906 52.214844 57.132812 51.949219 57.597656 C 51.683594 58.066406 51.332031 58.457031 50.898438 58.773438 L 44.65625 64.480469 C 40.957031 67.808594 39.125 72.328125 39.042969 78.3125 L 39.042969 82.675781 L 35.960938 82.675781 C 35.828125 82.675781 35.699219 82.699219 35.578125 82.753906 C 35.457031 82.804688 35.347656 82.878906 35.253906 82.972656 C 35.160156 83.066406 35.089844 83.179688 35.042969 83.300781 C 34.992188 83.425781 34.96875 83.554688 34.972656 83.6875 L 34.972656 87.964844 C 34.972656 88.09375 35 88.21875 35.050781 88.339844 C 35.097656 88.460938 35.171875 88.570312 35.261719 88.660156 C 35.355469 88.753906 35.460938 88.824219 35.582031 88.875 C 35.703125 88.925781 35.832031 88.949219 35.960938 88.949219 L 79.867188 88.949219 C 80 88.953125 80.132812 88.929688 80.257812 88.878906 C 80.382812 88.832031 80.492188 88.757812 80.589844 88.660156 C 80.683594 88.566406 80.757812 88.457031 80.808594 88.332031 C 80.859375 88.203125 80.882812 88.074219 80.878906 87.9375 L 80.878906 83.6875 C 80.878906 83.554688 80.851562 83.429688 80.804688 83.308594 C 80.753906 83.1875 80.683594 83.082031 80.589844 82.988281 C 80.496094 82.894531 80.390625 82.824219 80.269531 82.773438 C 80.148438 82.722656 80.023438 82.699219 79.890625 82.699219 L 76.769531 82.699219 L 76.769531 78.296875 C 76.699219 72.328125 74.863281 67.808594 71.164062 64.480469 L 64.914062 58.765625 C 64.484375 58.453125 64.136719 58.0625 63.875 57.601562 C 63.609375 57.136719 63.453125 56.640625 63.402344 56.109375 C 63.449219 55.59375 63.59375 55.105469 63.847656 54.652344 C 64.097656 54.199219 64.433594 53.816406 64.851562 53.503906 Z M 61.425781 56.117188 C 61.472656 56.929688 61.679688 57.695312 62.058594 58.414062 C 62.433594 59.132812 62.945312 59.738281 63.585938 60.238281 L 69.8125 65.941406 C 73.132812 68.929688 74.707031 72.867188 74.769531 78.3125 L 74.769531 82.675781 L 41.035156 82.675781 L 41.035156 78.320312 C 41.105469 72.867188 42.679688 68.929688 46 65.941406 L 52.242188 60.246094 C 52.890625 59.742188 53.402344 59.132812 53.78125 58.40625 C 54.160156 57.683594 54.371094 56.910156 54.417969 56.09375 C 54.375 55.304688 54.171875 54.554688 53.804688 53.855469 C 53.4375 53.152344 52.941406 52.558594 52.316406 52.074219 L 48.363281 48.46875 L 45.992188 46.300781 C 42.679688 43.316406 41.105469 39.378906 41.035156 33.933594 L 41.035156 28.882812 L 74.792969 28.882812 L 74.792969 33.894531 C 74.730469 39.347656 73.15625 43.285156 69.835938 46.269531 C 69.148438 46.886719 68.46875 47.511719 67.78125 48.144531 L 63.492188 52.074219 C 62.871094 52.566406 62.382812 53.167969 62.023438 53.875 C 61.664062 54.578125 61.464844 55.328125 61.425781 56.117188 Z M 61.425781 56.117188 "/></g><path style=" stroke:none;fill-rule:nonzero;fill:#fbd520;fill-opacity:1;" d="M 70.925781 41.796875 C 71.035156 41.609375 71.078125 41.40625 71.050781 41.1875 C 71.027344 40.972656 70.9375 40.785156 70.785156 40.628906 C 70.636719 40.464844 70.453125 40.367188 70.238281 40.332031 C 70.023438 40.292969 69.816406 40.328125 69.625 40.429688 C 65.726562 42.414062 64.265625 43.15625 58.21875 41.21875 C 56.28125 40.589844 54.296875 40.34375 52.261719 40.476562 C 50.226562 40.613281 48.292969 41.125 46.457031 42.011719 C 46.320312 42.074219 46.207031 42.164062 46.113281 42.28125 C 46.019531 42.398438 45.953125 42.53125 45.917969 42.675781 C 45.882812 42.824219 45.882812 42.96875 45.914062 43.117188 C 45.949219 43.261719 46.007812 43.394531 46.101562 43.511719 C 46.480469 43.964844 55.082031 52.207031 55.160156 52.207031 C 55.8125 52.957031 56.183594 53.832031 56.265625 54.824219 C 56.292969 55.023438 56.355469 55.214844 56.453125 55.390625 C 56.550781 55.566406 56.679688 55.71875 56.835938 55.847656 C 56.996094 55.976562 57.171875 56.070312 57.363281 56.132812 C 57.558594 56.191406 57.753906 56.214844 57.957031 56.199219 C 58.148438 56.214844 58.339844 56.199219 58.523438 56.140625 C 58.707031 56.085938 58.875 55.996094 59.023438 55.871094 C 59.171875 55.75 59.289062 55.601562 59.378906 55.429688 C 59.46875 55.257812 59.519531 55.078125 59.539062 54.886719 C 59.695312 53.578125 60.277344 52.496094 61.277344 51.636719 C 61.410156 51.519531 61.964844 50.988281 62.714844 50.269531 C 64.566406 48.5 67.648438 45.527344 68.492188 44.785156 C 69.464844 43.921875 70.277344 42.925781 70.925781 41.796875 Z M 70.925781 41.796875 "/><path style=" stroke:none;fill-rule:nonzero;fill:#fbd520;fill-opacity:1;" d="M 44.308594 79.515625 C 44.304688 79.648438 44.328125 79.777344 44.378906 79.902344 C 44.425781 80.027344 44.5 80.136719 44.59375 80.234375 C 44.6875 80.328125 44.796875 80.402344 44.921875 80.453125 C 45.046875 80.503906 45.175781 80.527344 45.3125 80.527344 L 70.53125 80.527344 C 70.664062 80.527344 70.789062 80.5 70.910156 80.449219 C 71.03125 80.398438 71.136719 80.328125 71.230469 80.234375 C 71.324219 80.144531 71.394531 80.035156 71.445312 79.914062 C 71.496094 79.792969 71.519531 79.667969 71.519531 79.539062 C 71.5 78.65625 71.394531 77.789062 71.203125 76.929688 C 71.015625 76.070312 70.742188 75.238281 70.390625 74.429688 C 70.039062 73.625 69.617188 72.859375 69.117188 72.132812 C 68.617188 71.410156 68.050781 70.742188 67.421875 70.125 C 66.792969 69.511719 66.109375 68.964844 65.375 68.480469 C 64.636719 68 63.863281 67.59375 63.046875 67.261719 C 62.230469 66.929688 61.394531 66.679688 60.527344 66.507812 C 59.664062 66.339844 58.792969 66.253906 57.914062 66.253906 C 57.035156 66.253906 56.164062 66.339844 55.300781 66.507812 C 54.4375 66.679688 53.597656 66.929688 52.78125 67.261719 C 51.96875 67.59375 51.191406 68 50.457031 68.480469 C 49.71875 68.964844 49.035156 69.511719 48.40625 70.125 C 47.777344 70.742188 47.210938 71.410156 46.714844 72.132812 C 46.214844 72.859375 45.789062 73.625 45.4375 74.429688 C 45.085938 75.238281 44.8125 76.070312 44.625 76.929688 C 44.433594 77.789062 44.328125 78.65625 44.308594 79.539062 Z M 44.308594 79.515625 "/></g></svg>